<svg width="188" height="149" viewBox="0 0 188 149" fill="none" xmlns="http://www.w3.org/2000/svg">
<path d="M128 56.125C128 52.7562 124.94 50 121.2 50H66.8C63.06 50 60 52.7562 60 56.125V92.875C60 96.2438 63.06 99 66.8 99H121.2C124.94 99 128 96.2438 128 92.875V56.125ZM121.2 56.125L94 71.4375L66.8 56.125H121.2ZM121.2 92.875H66.8V62.25L94 77.5625L121.2 62.25V92.875Z" fill="white"/>
<path d="M187 74.5C187 114.889 145.592 148 94 148C42.4082 148 1 114.889 1 74.5C1 34.1113 42.4082 1 94 1C145.592 1 187 34.1113 187 74.5Z" stroke="white" stroke-width="2"/>
</svg>
