<svg width="52" height="48" viewBox="0 0 52 48" fill="none" xmlns="http://www.w3.org/2000/svg">
<path d="M51.9978 24.1479C51.9978 10.8102 40.358 0 25.9989 0C11.6398 0 0 10.8102 0 24.1479C0 36.1977 9.50773 46.1869 21.9362 47.998V31.1267H15.3363V24.1459H21.9362V18.8273C21.9362 12.7742 25.8191 9.43177 31.756 9.43177C34.6009 9.43177 37.5759 9.90265 37.5759 9.90265V15.8451H34.2998C31.0713 15.8451 30.0638 17.7065 30.0638 19.6161V24.1479H37.2747L36.122 31.1287H30.0638V48C42.4923 46.1889 52 36.1997 52 24.1479H51.9978Z" fill="black"/>
</svg>
