<svg width="188" height="149" viewBox="0 0 188 149" fill="none" xmlns="http://www.w3.org/2000/svg">
<path d="M114.632 64.6308L94.5 48.1718L62.7995 74.0893H69.8947V103.35H83.3158V81.4044H105.684V103.35H119.105V74.0893H126.201L119.105 68.2884V55.8015H114.632V64.6308ZM52 77.7468L94.5 43L110.158 55.8015V52.1439H123.579V66.7741L137 77.7468H123.579V107H101.211V85.0546H87.7895V107H65.4211V77.7468H52Z" fill="white"/>
<path d="M187 74.5C187 114.889 145.592 148 94 148C42.4082 148 1 114.889 1 74.5C1 34.1113 42.4082 1 94 1C145.592 1 187 34.1113 187 74.5Z" stroke="white" stroke-width="2"/>
</svg>
