<svg width="54" height="44" viewBox="0 0 54 44" fill="none" xmlns="http://www.w3.org/2000/svg">
<path d="M27 0C19.665 0 18.7493 0.0275 15.8693 0.132C12.9937 0.242 11.0363 0.6105 9.315 1.155C7.53975 1.716 6.03225 2.4695 4.5315 3.69233C3.03075 4.91517 2.10375 6.14167 1.4175 7.59C0.74925 8.9925 0.29475 10.5875 0.162 12.9305C0.027 15.2772 0 16.0233 0 22C0 27.9767 0.03375 28.7228 0.162 31.0695C0.297 33.4107 0.74925 35.0075 1.4175 36.41C2.09541 37.8782 3.15809 39.2084 4.5315 40.3077C5.87987 41.4275 7.51252 42.2935 9.315 42.845C11.0385 43.3877 12.996 43.7598 15.8693 43.868C18.7493 43.978 19.665 44 27 44C34.335 44 35.2508 43.9725 38.1308 43.868C41.004 43.758 42.9638 43.3877 44.685 42.845C46.4865 42.292 48.1187 41.4261 49.4685 40.3077C50.8433 39.2093 51.9062 37.8789 52.5825 36.41C53.2485 35.0075 53.7052 33.4107 53.838 31.0695C53.973 28.7228 54 27.9767 54 22C54 16.0233 53.9662 15.2772 53.838 12.9305C53.703 10.5893 53.2485 8.99067 52.5825 7.59C51.9043 6.1219 50.8416 4.79183 49.4685 3.69233C48.1211 2.57151 46.4882 1.70535 44.685 1.155C42.9638 0.6105 41.004 0.240167 38.1308 0.132C35.2508 0.022 34.335 0 27 0ZM27 3.96C34.2067 3.96 35.0662 3.98933 37.9125 4.09017C40.545 4.191 41.9738 4.54667 42.9232 4.851C44.1877 5.24883 45.0832 5.7255 46.0327 6.49367C46.9755 7.26367 47.5605 7.99517 48.0487 9.0255C48.4177 9.79917 48.8587 10.9633 48.978 13.1083C49.1063 15.4293 49.1355 16.126 49.1355 22C49.1355 27.874 49.1017 28.5725 48.969 30.8917C48.8317 33.0367 48.393 34.2008 48.0218 34.9745C47.5825 35.9292 46.8921 36.794 45.999 37.5082C45.1263 38.2365 44.0657 38.7977 42.894 39.1508C41.949 39.4515 40.4977 39.8108 37.8652 39.908C34.9988 40.0125 34.155 40.0363 26.9325 40.0363C19.7078 40.0363 18.864 40.0088 15.9998 39.9007C13.365 39.7888 11.9137 39.4313 10.9688 39.1288C9.79628 38.7754 8.73602 38.2122 7.866 37.4807C6.96281 36.7744 6.27011 35.9089 5.841 34.9507C5.46975 34.1807 5.03325 32.9982 4.896 30.8532C4.79475 28.5432 4.75875 27.83 4.75875 21.9725C4.75875 16.1132 4.79475 15.3982 4.896 13.0607C5.03325 10.9157 5.46975 9.735 5.841 8.965C6.3135 7.92 6.91875 7.205 7.866 6.43317C8.80875 5.665 9.6885 5.17 10.9688 4.78683C11.9137 4.4825 13.3335 4.125 15.966 4.015C18.8348 3.9325 19.6785 3.905 26.8988 3.905L27 3.96ZM27 10.703C25.1793 10.703 23.3764 10.9952 21.6943 11.5629C20.0122 12.1307 18.4838 12.9628 17.1963 14.0118C15.9089 15.0608 14.8876 16.3062 14.1909 17.6768C13.4941 19.0474 13.1355 20.5165 13.1355 22C13.1355 23.4835 13.4941 24.9526 14.1909 26.3232C14.8876 27.6938 15.9089 28.9392 17.1963 29.9882C18.4838 31.0372 20.0122 31.8693 21.6943 32.4371C23.3764 33.0048 25.1793 33.297 27 33.297C30.6771 33.297 34.2036 32.1068 36.8037 29.9882C39.4038 27.8696 40.8645 24.9962 40.8645 22C40.8645 19.0038 39.4038 16.1304 36.8037 14.0118C34.2036 11.8932 30.6771 10.703 27 10.703ZM27 29.3333C22.0275 29.3333 18 26.0517 18 22C18 17.9483 22.0275 14.6667 27 14.6667C31.9725 14.6667 36 17.9483 36 22C36 26.0517 31.9725 29.3333 27 29.3333ZM44.6535 10.2575C44.6222 10.9406 44.2672 11.5873 43.663 12.0616C43.0588 12.5359 42.2525 12.8009 41.4135 12.8009C40.5745 12.8009 39.7682 12.5359 39.164 12.0616C38.5598 11.5873 38.2048 10.9406 38.1735 10.2575C38.1735 9.55733 38.5149 8.88583 39.1225 8.39074C39.7301 7.89564 40.5542 7.6175 41.4135 7.6175C42.2728 7.6175 43.0969 7.89564 43.7045 8.39074C44.3121 8.88583 44.6535 9.55733 44.6535 10.2575Z" fill="white"/>
</svg>
