<svg width="188" height="149" viewBox="0 0 188 149" fill="none" xmlns="http://www.w3.org/2000/svg">
<path d="M126.083 90.7452L116.778 97.5983C115.404 98.6441 113.583 98.9984 111.81 99C103.969 98.8256 96.557 95.9659 90.4713 93.0296C80.4821 87.6342 71.3166 80.9443 65.5641 72.8598C63.3579 69.4697 60.7691 65.1442 61.0165 61.3602C61.0385 59.9367 61.5552 58.5397 62.9055 57.6222L72.2107 50.7172C74.143 49.497 76.0116 49.9189 77.2481 51.3402L84.7342 61.8794C85.5221 63.128 85.0702 64.4657 83.8946 65.3579L80.4663 67.9018C80.2547 68.1171 80.1199 68.3621 80.1165 68.6287C81.4311 72.4067 85.4137 75.8888 88.932 78.2852C92.4502 80.6816 96.2319 83.9283 101.141 84.6969C101.747 84.8225 102.491 84.8667 102.925 84.5671L106.913 81.5559C108.288 80.7823 110.273 80.4042 111.74 81.0368H111.81L125.313 86.9553C127.296 87.8778 127.502 89.6606 126.083 90.7452Z" fill="white"/>
<path d="M187 74.5C187 114.889 145.592 148 94 148C42.4082 148 1 114.889 1 74.5C1 34.1113 42.4082 1 94 1C145.592 1 187 34.1113 187 74.5Z" stroke="white" stroke-width="2"/>
</svg>
