<svg width="126" height="107" viewBox="0 0 126 107" fill="none" xmlns="http://www.w3.org/2000/svg">
<path d="M56.8756 82.2201C56.8756 75.4939 55.1331 69.8531 51.6481 65.2747C49.1782 62.1256 45.8296 60.0542 41.5946 59.0682C37.4277 58.0899 33.4881 58.0211 29.9274 58.8542C28.7152 51.593 30.685 43.9037 35.6852 35.7558C40.6854 27.6156 47.163 21.4856 55.0649 17.3887L43.0946 0C37.0337 3.02679 31.2759 6.86378 25.9726 11.5033C20.5936 16.1429 15.8206 21.478 11.578 27.5086C7.3354 33.5393 4.15344 40.3495 2.10789 48.0694C0.0623417 55.7892 -0.513442 63.6619 0.463876 71.7639C1.73666 82.4647 5.16106 91.0253 10.7371 97.3693C16.3055 103.79 23.2528 107 31.5562 107C38.8672 107 44.9356 104.783 49.7389 100.289C54.4967 95.8865 56.8604 89.8558 56.8604 82.1895L56.8756 82.2124V82.2201ZM126 82.2201C126 75.4939 124.257 69.8531 120.772 65.2747C118.303 62.0644 114.939 59.9854 110.719 59.03C106.476 58.0822 102.582 58.0364 99.0518 58.8618C97.8396 51.677 99.7336 43.9572 104.734 35.7788C109.734 27.6768 116.204 21.562 124.106 17.4346L112.166 0C106.105 3.02679 100.385 6.86378 95.044 11.5033C89.616 16.2116 84.7952 21.5888 80.6949 27.5086C76.4825 33.5469 73.346 40.3495 71.3005 48.0694C69.2304 55.7845 68.6719 63.833 69.6565 71.7639C70.9065 82.4647 74.3158 91.0253 79.8842 97.3693C85.4299 103.736 92.3545 106.924 100.658 106.924C107.984 106.924 114.052 104.707 118.856 100.228C123.606 95.8253 125.992 89.7947 125.992 82.1284V82.2048L126 82.2201Z" fill="#DCAE1D"/>
</svg>
