<svg width="55" height="48" viewBox="0 0 55 48" fill="none" xmlns="http://www.w3.org/2000/svg">
<g clip-path="url(#clip0)">
<path d="M54.8946 9.13798C52.8355 9.92919 50.6541 10.4515 48.4206 10.688C50.7721 9.45448 52.5328 7.52007 53.3775 5.24198C51.1981 6.35198 48.7827 7.15998 46.2115 7.60998C44.5151 6.02684 42.2672 4.97682 39.8169 4.62298C37.3666 4.26914 34.851 4.63128 32.6607 5.65316C30.4704 6.67504 28.728 8.29948 27.7041 10.2742C26.6802 12.249 26.432 14.4635 26.9981 16.574C17.6252 16.188 9.31792 12.26 3.75833 6.32198C2.74724 7.8216 2.21985 9.53203 2.23208 11.272C2.23208 14.692 4.22583 17.698 7.24625 19.464C5.45613 19.4142 3.70556 18.9918 2.14042 18.232V18.354C2.1394 20.6268 3.03937 22.8299 4.68762 24.5895C6.33587 26.3491 8.6309 27.5569 11.1833 28.008C9.52943 28.3947 7.7972 28.4528 6.11417 28.178C6.83891 30.1338 8.24502 31.8435 10.1364 33.0686C12.0278 34.2937 14.3101 34.9731 16.665 35.012C12.6763 37.7437 7.75148 39.2264 2.68125 39.222C1.7875 39.222 0.896042 39.176 0 39.088C5.16933 41.9766 11.1799 43.51 17.3181 43.506C38.0669 43.506 49.3992 28.514 49.3992 15.534C49.3992 15.116 49.3992 14.694 49.3648 14.274C51.5785 12.8837 53.488 11.1576 55.0023 9.17798L54.8946 9.13798Z" fill="black"/>
</g>
<defs>
<clipPath id="clip0">
<rect width="55" height="48" fill="white"/>
</clipPath>
</defs>
</svg>
