<svg width="56" height="40" viewBox="0 0 56 40" fill="none" xmlns="http://www.w3.org/2000/svg">
<path d="M54.8946 4.64701C52.8355 5.43822 50.6541 5.96049 48.4206 6.19701C50.7721 4.96351 52.5328 3.0291 53.3775 0.75101C51.1981 1.86101 48.7827 2.66901 46.2115 3.11901C44.5151 1.53587 42.2672 0.485853 39.8169 0.132013C37.3666 -0.221827 34.851 0.140311 32.6607 1.16219C30.4704 2.18407 28.728 3.80851 27.7041 5.78326C26.6802 7.758 26.432 9.97255 26.9981 12.083C17.6252 11.697 9.31792 7.76901 3.75833 1.83101C2.74724 3.33064 2.21985 5.04106 2.23208 6.78101C2.23208 10.201 4.22583 13.207 7.24625 14.973C5.45613 14.9233 3.70556 14.5009 2.14042 13.741V13.863C2.1394 16.1358 3.03937 18.3389 4.68762 20.0985C6.33587 21.8582 8.6309 23.066 11.1833 23.517C9.52943 23.9038 7.7972 23.9619 6.11417 23.687C6.83891 25.6429 8.24502 27.3526 10.1364 28.5776C12.0278 29.8027 14.3101 30.4821 16.665 30.521C12.6763 33.2528 7.75148 34.7355 2.68125 34.731C1.7875 34.731 0.896042 34.685 0 34.597C5.16933 37.4857 11.1799 39.019 17.3181 39.015C38.0669 39.015 49.3992 24.023 49.3992 11.043C49.3992 10.625 49.3992 10.203 49.3648 9.78301C51.5785 8.3927 53.488 6.66662 55.0023 4.68701L54.8946 4.64701Z" fill="white"/>
</svg>
